<svg width="15" height="16" viewBox="0 0 15 16" fill="none" xmlns="http://www.w3.org/2000/svg">
<path d="M6.09525 10.6999C5.5785 11.5977 5.9265 12.3349 6.64425 12.7489C7.36125 13.1637 8.175 13.0977 8.69325 12.1999C9.21 11.3037 12.4785 3.3012 12.1943 3.13695C11.91 2.9727 6.61275 9.80295 6.09525 10.6999ZM7.5 4.99995C7.8285 4.99995 8.148 5.0277 8.46075 5.0817C8.78925 4.66995 9.15675 4.2162 9.5145 3.7857C8.85978 3.5962 8.1816 3.5 7.5 3.49995C3.29475 3.49995 0 7.0467 0 11.5744C0 11.8527 0.012 12.1309 0.03675 12.4017C0.0735 12.8149 0.44175 13.1179 0.84975 13.0827C1.263 13.0444 1.5675 12.6814 1.53075 12.2682C1.51027 12.0375 1.50001 11.806 1.5 11.5744C1.5 7.88745 4.1355 4.99995 7.5 4.99995ZM12.9142 5.93745C12.705 6.49995 12.4838 7.07295 12.2888 7.56795C13.05 8.67045 13.5 10.0534 13.5 11.5744C13.5 11.8114 13.4888 12.0507 13.4678 12.2817C13.4581 12.4752 13.5236 12.665 13.6506 12.8113C13.7777 12.9576 13.9563 13.0491 14.1493 13.0668C14.3422 13.0844 14.5345 13.0267 14.6859 12.9059C14.8373 12.785 14.9362 12.6103 14.9617 12.4182C14.9865 12.1407 15 11.8572 15 11.5744C15 9.35895 14.2102 7.38195 12.9142 5.93745Z" fill="white" fill-opacity="0.6"/>
</svg>
