<svg width="15" height="15" viewBox="0 0 15 15" fill="none" xmlns="http://www.w3.org/2000/svg">
<path fill-rule="evenodd" clip-rule="evenodd" d="M4.375 3.125C4.375 1.74429 5.49429 0.625 6.875 0.625C8.25569 0.625 9.375 1.74429 9.375 3.125C9.375 4.50571 8.25569 5.625 6.875 5.625H1.875C1.52982 5.625 1.25 5.34517 1.25 5C1.25 4.65482 1.52982 4.375 1.875 4.375H6.875C7.56537 4.375 8.125 3.81536 8.125 3.125C8.125 2.43464 7.56537 1.875 6.875 1.875C6.18464 1.875 5.625 2.43464 5.625 3.125V3.1875C5.625 3.53267 5.34517 3.8125 5 3.8125C4.65482 3.8125 4.375 3.53267 4.375 3.1875V3.125ZM10.5625 3.75C10.5625 3.40482 10.8423 3.125 11.1875 3.125H11.25C12.6307 3.125 13.75 4.24429 13.75 5.625C13.75 7.00569 12.6307 8.125 11.25 8.125H3.125C2.77982 8.125 2.5 7.84519 2.5 7.5C2.5 7.15481 2.77982 6.875 3.125 6.875H11.25C11.9404 6.875 12.5 6.31537 12.5 5.625C12.5 4.93464 11.9404 4.375 11.25 4.375H11.1875C10.8423 4.375 10.5625 4.09517 10.5625 3.75ZM0 7.5C0 7.15481 0.279822 6.875 0.625 6.875H1.25C1.59517 6.875 1.875 7.15481 1.875 7.5C1.875 7.84519 1.59517 8.125 1.25 8.125H0.625C0.279822 8.125 0 7.84519 0 7.5ZM2.5 10C2.5 9.65481 2.77982 9.375 3.125 9.375H3.75C4.09517 9.375 4.375 9.65481 4.375 10C4.375 10.3452 4.09517 10.625 3.75 10.625H3.125C2.77982 10.625 2.5 10.3452 2.5 10ZM5 10C5 9.65481 5.27982 9.375 5.625 9.375H8.125C9.50569 9.375 10.625 10.4943 10.625 11.875C10.625 13.2557 9.50569 14.375 8.125 14.375C6.74431 14.375 5.625 13.2557 5.625 11.875V11.8125C5.625 11.4673 5.90482 11.1875 6.25 11.1875C6.59519 11.1875 6.875 11.4673 6.875 11.8125V11.875C6.875 12.5654 7.43462 13.125 8.125 13.125C8.81537 13.125 9.375 12.5654 9.375 11.875C9.375 11.1846 8.81537 10.625 8.125 10.625H5.625C5.27982 10.625 5 10.3452 5 10Z" fill="white" fill-opacity="0.6"/>
</svg>
