<svg width="12" height="12" viewBox="0 0 12 12" fill="none" xmlns="http://www.w3.org/2000/svg">
<path d="M6.29816 1.34095C6.08853 0.874062 6.48991 0.373587 6.98378 0.460775C9.62141 0.926375 11.6251 3.22853 11.6251 5.99997C11.6251 9.10653 9.10666 11.625 6.00009 11.625C3.22866 11.625 0.9265 9.62128 0.4609 6.98366C0.373706 6.48972 0.874225 6.08847 1.34107 6.29803C1.80854 6.50791 2.32729 6.62497 2.87507 6.62497C4.94616 6.62497 6.62509 4.94603 6.62509 2.87494C6.62509 2.32717 6.50803 1.80842 6.29816 1.34095ZM1.97811 3.3223L2.01795 3.40938C2.18843 3.76207 2.457 4.05812 2.79135 4.26206L2.85343 4.29844C2.88228 4.31466 2.88228 4.3562 2.85343 4.37242L2.79135 4.40881C2.457 4.61274 2.18843 4.90878 2.01795 5.26147L1.97811 5.34853C1.96249 5.38366 1.91264 5.38366 1.89703 5.34853L1.85718 5.26147C1.6867 4.90878 1.41814 4.61274 1.08379 4.40881L1.0217 4.37242C0.992856 4.3562 0.992856 4.31466 1.0217 4.29844L1.08379 4.26206C1.41814 4.05812 1.6867 3.76207 1.85718 3.40938L1.89703 3.3223C1.91264 3.28717 1.96249 3.28717 1.97811 3.3223ZM3.74798 0.285831C3.77283 0.229918 3.85219 0.229918 3.87703 0.285831L3.94046 0.424431C4.21182 0.985818 4.63931 1.45706 5.17153 1.78167L5.27034 1.83957C5.31622 1.8654 5.31622 1.93152 5.27034 1.95734L5.17153 2.01525C4.63931 2.33986 4.21182 2.8111 3.94046 3.37249C3.91834 3.41824 3.89767 3.46465 3.87703 3.51109C3.85219 3.567 3.77283 3.567 3.74798 3.51109L3.68456 3.37249C3.4132 2.8111 2.98571 2.33986 2.45352 2.01525L2.35469 1.95734C2.30877 1.93152 2.30877 1.8654 2.35469 1.83957L2.45352 1.78167C2.98571 1.45706 3.4132 0.985818 3.68456 0.424431L3.74798 0.285831Z" fill="#90B7D2"/>
</svg>
