<svg width="128" height="128" viewBox="0 0 128 128" fill="none" xmlns="http://www.w3.org/2000/svg">
<path d="M66.5436 24.243C64.7548 20.2589 68.1798 15.9882 72.3942 16.7322C94.902 20.7053 112 40.3503 112 63.9999C112 90.5093 90.5094 112 64.0001 112C40.3505 112 20.7054 94.9018 16.7323 72.3941C15.9883 68.1791 20.2594 64.7551 24.2431 66.5434C28.2322 68.3343 32.6589 69.3333 37.3332 69.3333C55.0065 69.3333 69.3334 55.0063 69.3334 37.3331C69.3334 32.6587 68.3345 28.2321 66.5436 24.243ZM29.6791 41.1505L30.0191 41.8936C31.4739 44.9032 33.7657 47.4295 36.6188 49.1698L37.1486 49.4802C37.3948 49.6187 37.3948 49.9731 37.1486 50.1116L36.6188 50.422C33.7657 52.1622 31.4739 54.6885 30.0191 57.6981L29.6791 58.441C29.5459 58.7407 29.1205 58.7407 28.9873 58.441L28.6472 57.6981C27.1925 54.6885 24.9007 52.1622 22.0476 50.422L21.5178 50.1116C21.2717 49.9731 21.2717 49.6187 21.5178 49.4802L22.0476 49.1698C24.9007 47.4295 27.1925 44.9032 28.6472 41.8936L28.9873 41.1505C29.1205 40.8508 29.5459 40.8508 29.6791 41.1505ZM44.7821 15.2393C44.9941 14.7622 45.6713 14.7622 45.8833 15.2393L46.4245 16.422C48.7401 21.2125 52.388 25.2338 56.9297 28.0038L57.7729 28.4979C58.1644 28.7183 58.1644 29.2825 57.7729 29.5029L56.9297 29.997C52.388 32.767 48.7401 36.7883 46.4245 41.5788C46.2358 41.9692 46.0595 42.3652 45.8833 42.7615C45.6713 43.2386 44.9941 43.2386 44.7821 42.7615L44.2409 41.5788C41.9253 36.7883 38.2774 32.767 33.736 29.997L32.8927 29.5029C32.5008 29.2825 32.5008 28.7183 32.8927 28.4979L33.736 28.0038C38.2774 25.2338 41.9253 21.2125 44.2409 16.422L44.7821 15.2393Z" fill="#ECECEC"/>
</svg>
