<svg width="15" height="16" viewBox="0 0 15 16" fill="none" xmlns="http://www.w3.org/2000/svg">
<path d="M10.625 9.25C10.9702 9.25 11.25 8.97019 11.25 8.625C11.25 8.27981 10.9702 8 10.625 8C10.2798 8 10 8.27981 10 8.625C10 8.97019 10.2798 9.25 10.625 9.25Z" fill="white" fill-opacity="0.7"/>
<path d="M10.625 11.75C10.9702 11.75 11.25 11.4702 11.25 11.125C11.25 10.7798 10.9702 10.5 10.625 10.5C10.2798 10.5 10 10.7798 10 11.125C10 11.4702 10.2798 11.75 10.625 11.75Z" fill="white" fill-opacity="0.6"/>
<path d="M8.125 8.625C8.125 8.97019 7.84519 9.25 7.5 9.25C7.15481 9.25 6.875 8.97019 6.875 8.625C6.875 8.27981 7.15481 8 7.5 8C7.84519 8 8.125 8.27981 8.125 8.625Z" fill="white" fill-opacity="0.7"/>
<path d="M8.125 11.125C8.125 11.4702 7.84519 11.75 7.5 11.75C7.15481 11.75 6.875 11.4702 6.875 11.125C6.875 10.7798 7.15481 10.5 7.5 10.5C7.84519 10.5 8.125 10.7798 8.125 11.125Z" fill="white" fill-opacity="0.7"/>
<path d="M4.375 9.25C4.72018 9.25 5 8.97019 5 8.625C5 8.27981 4.72018 8 4.375 8C4.02982 8 3.75 8.27981 3.75 8.625C3.75 8.97019 4.02982 9.25 4.375 9.25Z" fill="white" fill-opacity="0.7"/>
<path d="M4.375 11.75C4.72018 11.75 5 11.4702 5 11.125C5 10.7798 4.72018 10.5 4.375 10.5C4.02982 10.5 3.75 10.7798 3.75 11.125C3.75 11.4702 4.02982 11.75 4.375 11.75Z" fill="white" fill-opacity="0.7"/>
<path fill-rule="evenodd" clip-rule="evenodd" d="M4.375 1.59375C4.63388 1.59375 4.84375 1.80362 4.84375 2.0625V2.5392C5.2575 2.53124 5.71333 2.53124 6.21466 2.53125H8.78525C9.28663 2.53124 9.7425 2.53124 10.1562 2.5392V2.0625C10.1562 1.80362 10.3661 1.59375 10.625 1.59375C10.8839 1.59375 11.0938 1.80362 11.0938 2.0625V2.57943C11.2562 2.59182 11.4101 2.60739 11.5556 2.62696C12.2884 2.72548 12.8815 2.93305 13.3493 3.40078C13.8169 3.86851 14.0245 4.46159 14.1231 5.19436C14.2188 5.90636 14.2188 6.81612 14.2188 7.96469V9.28525C14.2188 10.4338 14.2188 11.3436 14.1231 12.0556C14.0245 12.7884 13.8169 13.3815 13.3493 13.8493C12.8815 14.3169 12.2884 14.5245 11.5556 14.6231C10.8436 14.7188 9.93388 14.7188 8.78531 14.7188H6.21474C5.06616 14.7188 4.15636 14.7188 3.44436 14.6231C2.7116 14.5245 2.11851 14.3169 1.65078 13.8493C1.18305 13.3815 0.975475 12.7884 0.876963 12.0556C0.781231 11.3436 0.781238 10.4339 0.78125 9.28525V7.96475C0.781238 6.81612 0.781231 5.90637 0.876963 5.19436C0.975475 4.46159 1.18305 3.86851 1.65078 3.40078C2.11851 2.93305 2.7116 2.72548 3.44436 2.62696C3.58994 2.60739 3.74379 2.59182 3.90625 2.57943V2.0625C3.90625 1.80362 4.11612 1.59375 4.375 1.59375ZM3.56928 3.5561C2.94048 3.64064 2.57819 3.79918 2.31369 4.06369C2.04918 4.32819 1.89064 4.69047 1.8061 5.31928C1.79178 5.42577 1.77981 5.53788 1.7698 5.65625H13.2302C13.2202 5.53788 13.2082 5.42577 13.1939 5.31928C13.1094 4.69047 12.9508 4.32819 12.6863 4.06369C12.4218 3.79918 12.0595 3.64064 11.4307 3.5561C10.7884 3.46974 9.94175 3.46875 8.75 3.46875H6.25C5.05824 3.46875 4.21157 3.46974 3.56928 3.5561ZM1.71875 8C1.71875 7.46625 1.71895 7.00169 1.72693 6.59375H13.2731C13.2811 7.00169 13.2812 7.46625 13.2812 8V9.25C13.2812 10.4418 13.2803 11.2884 13.1939 11.9307C13.1094 12.5595 12.9508 12.9218 12.6863 13.1863C12.4218 13.4508 12.0595 13.6094 11.4307 13.6939C10.7884 13.7803 9.94175 13.7812 8.75 13.7812H6.25C5.05824 13.7812 4.21157 13.7803 3.56928 13.6939C2.94048 13.6094 2.57819 13.4508 2.31369 13.1863C2.04918 12.9218 1.89064 12.5595 1.8061 11.9307C1.71974 11.2884 1.71875 10.4418 1.71875 9.25V8Z" fill="white" fill-opacity="0.7"/>
</svg>
