<svg width="64" height="64" viewBox="0 0 64 64" fill="none" xmlns="http://www.w3.org/2000/svg">
<path d="M18.6668 29.3332C21.6123 29.3332 24.0002 26.9454 24.0002 23.9998C24.0002 21.0543 21.6123 18.6665 18.6668 18.6665C15.7213 18.6665 13.3335 21.0543 13.3335 23.9998C13.3335 26.9454 15.7213 29.3332 18.6668 29.3332Z" stroke="white" stroke-width="4" stroke-linecap="round" stroke-linejoin="round"/>
<path d="M14.8281 55.9999C29.6813 29.5999 42.028 24.9597 56.0013 42.1063" stroke="white" stroke-width="4" stroke-linecap="round" stroke-linejoin="round"/>
<path d="M38.2668 8H13.3334C10.5044 8 7.79134 9.12363 5.79093 11.124C3.79053 13.1244 2.66675 15.8377 2.66675 18.6667V45.3333C2.66675 48.1624 3.79053 50.8752 5.79093 52.8757C7.79134 54.876 10.5044 56 13.3334 56H45.3334C48.1625 56 50.8755 54.876 52.8758 52.8757C54.8763 50.8752 56.0001 48.1624 56.0001 45.3333V24" stroke="white" stroke-width="4" stroke-linecap="round" stroke-linejoin="round"/>
<path d="M59.4928 8.45314L45.8928 22.0267C44.5594 23.3867 40.5594 23.9998 39.6528 23.1198C38.7461 22.2398 39.3594 18.2132 40.7194 16.8532L54.293 3.27997C54.9789 2.57273 55.9178 2.16705 56.9029 2.15204C57.8882 2.13704 58.8389 2.51387 59.5461 3.19989C60.2536 3.88592 60.6592 4.82472 60.6744 5.80992C60.6893 6.79512 60.3122 7.74592 59.6264 8.45314H59.4928Z" stroke="white" stroke-width="4" stroke-linecap="round" stroke-linejoin="round"/>
</svg>
