<svg width="25" height="24" viewBox="0 0 25 24" fill="none" xmlns="http://www.w3.org/2000/svg">
<path d="M10.9853 -0.00720215C5.47435 -0.00720215 0.985352 4.4818 0.985352 9.99279C0.985352 15.5038 5.47435 19.9928 10.9853 19.9928C13.3819 19.9928 15.5827 19.1418 17.3076 17.7291L23.2783 23.6998C23.5291 23.9611 23.9016 24.0663 24.252 23.9749C24.6025 23.8836 24.8761 23.6099 24.9675 23.2595C25.0589 22.909 24.9536 22.5366 24.6924 22.2858L18.7217 16.3151C20.1343 14.5902 20.9853 12.3893 20.9853 9.99279C20.9853 4.4818 16.4963 -0.00720215 10.9853 -0.00720215ZM10.9853 1.9928C15.4155 1.9928 18.9853 5.56268 18.9853 9.99279C18.9853 14.4229 15.4155 17.9928 10.9853 17.9928C6.55523 17.9928 2.98535 14.4229 2.98535 9.99279C2.98535 5.56268 6.55523 1.9928 10.9853 1.9928Z" fill="white" fill-opacity="0.5"/>
</svg>
