<svg width="26" height="25" viewBox="0 0 26 25" fill="none" xmlns="http://www.w3.org/2000/svg">
<g clip-path="url(#clip0_14_223)">
<path d="M13.1667 18.75C14.8243 18.75 16.414 18.0915 17.5861 16.9194C18.7582 15.7473 19.4167 14.1576 19.4167 12.5C19.4167 10.8424 18.7582 9.25268 17.5861 8.08058C16.414 6.90848 14.8243 6.25 13.1667 6.25C11.5091 6.25 9.91937 6.90848 8.74727 8.08058C7.57517 9.25268 6.91669 10.8424 6.91669 12.5C6.91669 14.1576 7.57517 15.7473 8.74727 16.9194C9.91937 18.0915 11.5091 18.75 13.1667 18.75ZM13.1667 0C13.3739 0 13.5726 0.08231 13.7191 0.228823C13.8656 0.375336 13.9479 0.57405 13.9479 0.78125V3.90625C13.9479 4.11345 13.8656 4.31216 13.7191 4.45868C13.5726 4.60519 13.3739 4.6875 13.1667 4.6875C12.9595 4.6875 12.7608 4.60519 12.6143 4.45868C12.4677 4.31216 12.3854 4.11345 12.3854 3.90625V0.78125C12.3854 0.57405 12.4677 0.375336 12.6143 0.228823C12.7608 0.08231 12.9595 0 13.1667 0ZM13.1667 20.3125C13.3739 20.3125 13.5726 20.3948 13.7191 20.5413C13.8656 20.6878 13.9479 20.8865 13.9479 21.0938V24.2188C13.9479 24.426 13.8656 24.6247 13.7191 24.7712C13.5726 24.9177 13.3739 25 13.1667 25C12.9595 25 12.7608 24.9177 12.6143 24.7712C12.4677 24.6247 12.3854 24.426 12.3854 24.2188V21.0938C12.3854 20.8865 12.4677 20.6878 12.6143 20.5413C12.7608 20.3948 12.9595 20.3125 13.1667 20.3125ZM25.6667 12.5C25.6667 12.7072 25.5844 12.9059 25.4379 13.0524C25.2914 13.1989 25.0926 13.2812 24.8854 13.2812H21.7604C21.5532 13.2812 21.3545 13.1989 21.208 13.0524C21.0615 12.9059 20.9792 12.7072 20.9792 12.5C20.9792 12.2928 21.0615 12.0941 21.208 11.9476C21.3545 11.8011 21.5532 11.7188 21.7604 11.7188H24.8854C25.0926 11.7188 25.2914 11.8011 25.4379 11.9476C25.5844 12.0941 25.6667 12.2928 25.6667 12.5ZM5.35419 12.5C5.35419 12.7072 5.27188 12.9059 5.12536 13.0524C4.97885 13.1989 4.78014 13.2812 4.57294 13.2812H1.44794C1.24074 13.2812 1.04202 13.1989 0.89551 13.0524C0.748997 12.9059 0.666687 12.7072 0.666687 12.5C0.666687 12.2928 0.748997 12.0941 0.89551 11.9476C1.04202 11.8011 1.24074 11.7188 1.44794 11.7188H4.57294C4.78014 11.7188 4.97885 11.8011 5.12536 11.9476C5.27188 12.0941 5.35419 12.2928 5.35419 12.5ZM22.0057 3.66094C22.1522 3.80744 22.2345 4.00612 22.2345 4.21328C22.2345 4.42044 22.1522 4.61912 22.0057 4.76562L19.7964 6.97656C19.7237 7.0491 19.6375 7.10661 19.5427 7.14583C19.4478 7.18505 19.3461 7.20519 19.2435 7.20512C19.0362 7.20498 18.8374 7.12248 18.6909 6.97578C18.6184 6.90314 18.5609 6.81693 18.5216 6.72207C18.4824 6.6272 18.4623 6.52554 18.4623 6.42288C18.4625 6.21557 18.545 6.0168 18.6917 5.87031L20.9011 3.66094C21.0476 3.51448 21.2462 3.4322 21.4534 3.4322C21.6606 3.4322 21.8592 3.51448 22.0057 3.66094ZM7.64169 18.025C7.78815 18.1715 7.87043 18.3702 7.87043 18.5773C7.87043 18.7845 7.78815 18.9832 7.64169 19.1297L5.43231 21.3391C5.28497 21.4814 5.08762 21.5601 4.88278 21.5583C4.67794 21.5566 4.48199 21.4744 4.33714 21.3295C4.19229 21.1847 4.11013 20.9887 4.10835 20.7839C4.10657 20.5791 4.18531 20.3817 4.32762 20.2344L6.537 18.025C6.68351 17.8785 6.88218 17.7963 7.08934 17.7963C7.2965 17.7963 7.49518 17.8785 7.64169 18.025ZM22.0057 21.3391C21.8592 21.4855 21.6606 21.5678 21.4534 21.5678C21.2462 21.5678 21.0476 21.4855 20.9011 21.3391L18.6917 19.1297C18.5494 18.9823 18.4706 18.785 18.4724 18.5802C18.4742 18.3753 18.5564 18.1794 18.7012 18.0345C18.8461 17.8897 19.042 17.8075 19.2468 17.8057C19.4517 17.8039 19.649 17.8827 19.7964 18.025L22.0057 20.2344C22.1522 20.3809 22.2345 20.5796 22.2345 20.7867C22.2345 20.9939 22.1522 21.1926 22.0057 21.3391ZM7.64169 6.97656C7.49518 7.12302 7.2965 7.2053 7.08934 7.2053C6.88218 7.2053 6.68351 7.12302 6.537 6.97656L4.32762 4.76562C4.25301 4.69356 4.19349 4.60735 4.15255 4.51203C4.1116 4.41672 4.09005 4.3142 4.08915 4.21047C4.08825 4.10674 4.10801 4.00386 4.1473 3.90785C4.18658 3.81184 4.24459 3.72461 4.31794 3.65125C4.39129 3.5779 4.47852 3.51989 4.57454 3.48061C4.67055 3.44133 4.77342 3.42156 4.87716 3.42246C4.98089 3.42336 5.08341 3.44491 5.17872 3.48586C5.27404 3.5268 5.36024 3.58632 5.43231 3.66094L7.64169 5.87031C7.71444 5.94288 7.77217 6.0291 7.81155 6.12401C7.85094 6.21892 7.87121 6.32068 7.87121 6.42344C7.87121 6.5262 7.85094 6.62795 7.81155 6.72287C7.77217 6.81778 7.71444 6.90399 7.64169 6.97656Z" fill="#FFCC00"/>
</g>
<defs>
<clipPath id="clip0_14_223">
<rect width="25" height="25" fill="white" transform="translate(0.666687)"/>
</clipPath>
</defs>
</svg>
