<svg width="15" height="16" viewBox="0 0 15 16" fill="none" xmlns="http://www.w3.org/2000/svg">
<path fill-rule="evenodd" clip-rule="evenodd" d="M12.5 14.4286H2.5C2.224 14.4286 2 14.6686 2 14.9643C2 15.2605 2.224 15.5 2.5 15.5H12.5C12.776 15.5 13 15.2605 13 14.9643C13 14.6686 12.776 14.4286 12.5 14.4286ZM14 12.2857H1C0.724 12.2857 0.5 12.5257 0.5 12.8214C0.5 13.1177 0.724 13.3571 1 13.3571H14C14.276 13.3571 14.5 13.1177 14.5 12.8214C14.5 12.5257 14.276 12.2857 14 12.2857ZM14.5 10.1429H0.5C0.224 10.1429 0 10.3823 0 10.6786C0 10.9748 0.224 11.2143 0.5 11.2143H14.5C14.776 11.2143 15 10.9748 15 10.6786C15 10.3823 14.776 10.1429 14.5 10.1429ZM7.5 2.64286C7.776 2.64286 8 2.40339 8 2.10714V1.03571C8 0.739464 7.776 0.5 7.5 0.5C7.224 0.5 7 0.739464 7 1.03571V2.10714C7 2.40339 7.224 2.64286 7.5 2.64286ZM13.5 5.0075L14.207 4.25C14.4025 4.04054 14.4025 3.70196 14.207 3.4925C14.012 3.28303 13.6955 3.28303 13.5 3.4925L12.793 4.25C12.5975 4.45946 12.5975 4.79804 12.793 5.0075C12.9885 5.21696 13.3045 5.21696 13.5 5.0075ZM1.5 5.0075C1.6955 5.21696 2.012 5.21696 2.207 5.0075C2.4025 4.79804 2.4025 4.45946 2.207 4.25L1.5 3.4925C1.3045 3.28303 0.988499 3.28303 0.792999 3.4925C0.597499 3.70196 0.597499 4.04054 0.792999 4.25L1.5 5.0075ZM13.5 9.07143C13.1155 6.04946 10.548 3.71429 7.5 3.71429C4.452 3.71429 1.8845 6.04946 1.5 9.07143H13.5Z" fill="white" fill-opacity="0.6"/>
</svg>
